<svg t="1588771741372" class="icon" viewBox="0 0 1024 1024" version="1.1" xmlns="http://www.w3.org/2000/svg" p-id="35006" width="200" height="200"><path d="M512 4.12672c280.49408 0 507.87328 227.3792 507.87328 507.87328 0 280.49408-227.3792 507.87328-507.87328 507.87328C231.50592 1019.87328 4.12672 792.49408 4.12672 512 4.12672 231.50592 231.50592 4.12672 512 4.12672zM512 685.96736c-42.47552 0-76.91264 34.42688-76.91264 76.91264 0 42.47552 34.43712 76.91264 76.91264 76.91264 42.47552 0 76.91264-34.43712 76.91264-76.91264C588.91264 720.39424 554.47552 685.96736 512 685.96736zM509.78816 625.83808c36.58752 0 66.24256-29.66528 66.24256-66.24256l0-309.1456c0-36.58752-29.65504-66.24256-66.24256-66.24256-36.58752 0-66.24256 29.66528-66.24256 66.24256l0 309.1456C443.5456 596.18304 473.20064 625.83808 509.78816 625.83808z" p-id="35007" fill="#e6e6e6"></path></svg>