<svg t="1588770853788" class="icon" viewBox="0 0 1024 1024" version="1.1" xmlns="http://www.w3.org/2000/svg" p-id="17223" width="200" height="200"><path d="M320 864 320 0l480 0 0 192 0 32L1024 224l0 640L320 864zM928 320l-512 0 0 32 512 0L928 320zM928 448l-512 0 0 32 512 0L928 448zM928 576l-512 0 0 32 512 0L928 576zM928 704l-512 0 0 32 512 0L928 704zM832 0l19.2 0L1024 160 1024 192l-192 0L832 0zM288 896l320 0L704 896l0 128L0 1024 0 160l288 0 0 320-192 0L96 512l192 0 0 96-192 0L96 640l192 0 0 96-192 0L96 768l192 0 0 96-192 0L96 896 288 896z" p-id="17224" fill="#e6e6e6"></path></svg>