<svg t="1588772433453" class="icon" viewBox="0 0 1677 1024" version="1.1" xmlns="http://www.w3.org/2000/svg" p-id="46141" width="200" height="200"><path d="M1676.540928 1010.427569 1367.696896 1010.427569C1347.986069 874.820618 1282.272061 752.125937 1177.133019 668.176335 1163.990221 642.345179 1157.422192 616.517334 1157.422192 590.687834 1157.422192 480.908731 1249.416741 390.504652 1361.127182 390.504652 1472.837623 390.504652 1564.832172 480.908731 1564.832172 590.687834 1564.832172 661.720202 1525.403769 726.294781 1466.264539 758.583727 1577.974979 797.330462 1656.828416 894.190673 1676.539243 1010.430874L1676.540928 1010.427569ZM506.8805 590.687834C506.8805 610.057889 500.309099 635.889046 493.737698 655.265726 382.027259 739.213671 303.173823 868.364485 283.462992 1010.429226L0.904564 1010.429226C14.047366 894.193986 99.472202 797.330462 204.609556 765.043172 145.468636 732.755882 106.041917 668.179648 106.041917 597.147279 106.041917 487.368177 198.03647 396.964098 309.746909 396.964098 421.457348 396.964098 506.8805 480.912044 506.8805 590.68949L506.8805 590.687834ZM1334.843262 1010.427569 322.888024 1010.427569C349.173627 823.158306 487.166297 668.176335 664.587372 603.603412 566.019734 545.484967 500.309099 442.165309 500.309099 325.930073 500.309099 145.118603 644.874855 3.055523 828.86396 3.055523 1012.853062 3.055523 1157.418822 145.121915 1157.418822 325.930073 1157.418822 442.165309 1091.704813 551.944412 993.14055 603.603412 1177.133019 668.181304 1308.557666 823.159962 1334.839892 1010.427569L1334.843262 1010.427569Z" p-id="46142" fill="#e6e6e6"></path></svg>