<svg t="1588772172623" class="icon" viewBox="0 0 1024 1024" version="1.1" xmlns="http://www.w3.org/2000/svg" p-id="42651" width="200" height="200"><path d="M810.666667 896 213.333333 896c-47.36 0-85.333333-38.4-85.333333-85.333333L128 213.333333c0-46.933333 37.973333-85.333333 85.333333-85.333333l512 0 170.666667 170.666667 0 512C896 857.6 857.6 896 810.666667 896zM426.410667 341.333333c-47.36 0-85.589333 38.144-85.589333 85.418667s38.229333 85.418667 85.589333 85.418667c47.36 0 85.290667-38.144 85.290667-85.418667S473.770667 341.333333 426.410667 341.333333zM436.352 554.453333c-74.24 0-223.018667 41.642667-223.018667 124.586667L213.333333 768l213.674667 0 0-80.085333c0-30.250667 19.84-83.285333 84.821333-123.52C484.138667 557.994667 457.386667 554.453333 436.352 554.453333zM639.701333 383.573333c-47.104 0-85.333333 38.314667-85.333333 85.546667s38.229333 85.546667 85.333333 85.546667 84.992-38.314667 84.992-85.546667S686.805333 383.573333 639.701333 383.573333zM810.666667 690.986667c0-62.634667-114.090667-94.08-170.922667-94.08-56.874667 0-170.965333 31.488-170.965333 94.08L468.778667 768 810.666667 768 810.666667 690.986667z" p-id="42652" fill="#e6e6e6"></path></svg>