<svg t="1588770662278" class="icon" viewBox="0 0 1025 1024" version="1.1" xmlns="http://www.w3.org/2000/svg" p-id="15171" width="200" height="200"><path d="M497.366783 35.974008c8.059946-16.243718 21.210062-16.243718 29.262844 0l133.94595 271.490017c7.990358 16.241672 29.258751 31.712757 47.177702 34.292636l299.595447 43.572421c17.981376 2.578855 22.043073 15.081187 9.023947 27.780003l-216.702645 211.288073c-13.020149 12.699839-21.14252 37.707572-18.050964 55.558982l51.180045 298.370491c3.093603 17.856526-7.6066 25.590022-23.589363 17.147341l-268.012656-140.901696c-16.050304-8.37821-42.347465-8.37821-58.396746 0l-268.009586 140.901696c-15.982763 8.442681-26.687059 0.709185-23.588339-17.147341l51.179021-298.370491c3.09258-17.85141-5.028768-42.859143-18.049941-55.558982l-216.702645-211.288073c-13.021173-12.698816-8.959476-25.201147 9.023947-27.780003l299.5934-43.572421c17.919974-2.579879 39.189391-18.050964 47.181795-34.292636L497.366783 35.974008z" p-id="15172" fill="#e6e6e6"></path></svg>