<svg t="1588770751989" class="icon" viewBox="0 0 1024 1024" version="1.1" xmlns="http://www.w3.org/2000/svg" p-id="15986" width="200" height="200"><path d="M858.4 311.3C894.1 355.2 912 403 912 454.8s-17.9 99.6-53.6 143.5c-35.7 43.9-84.2 78.6-145.5 104-61.3 25.4-128.4 38.1-200.9 38.1-20.8 0-42.4-1.2-64.7-3.6C388.2 789 319.8 825 241.9 845c-14.6 4.1-31.5 7.4-50.9 9.9-5.1 0.6-9.6-0.8-13.6-4-4-3.3-6.7-7.6-7.8-13v-0.5c-0.9-1.2-0.9-3-0.2-5.4 0.8-2.3 1-3.8 0.9-4.5-0.2-0.6 0.5-2 2-4.2s2.3-3.6 2.7-4c0.3-0.5 1.3-1.7 3.1-3.8 1.8-2.1 3-3.4 3.6-4 2.1-2.3 6.7-7.5 13.8-15.4s12.3-13.5 15.4-17c3.1-3.4 7.7-9.3 13.8-17.7 6.1-8.4 10.9-16 14.6-22.7 3.6-6.9 7.6-15.6 12-26.4 4.5-10.7 8.4-22.1 11.6-33.9-46.8-26.5-83.6-59.2-110.5-98.2-26.9-39-40.4-80.8-40.4-125.4 0-38.7 10.5-75.7 31.7-111 21.1-35.3 49.6-65.7 85.3-91.3 35.7-25.6 78.3-45.9 127.7-60.9 49.4-15 101.2-22.5 155.4-22.5 72.6 0 139.6 12.8 200.9 38.2 61.2 25.4 109.6 60 145.4 104z" p-id="15987" fill="#e6e6e6"></path></svg>