<svg t="1588771966265" class="icon" viewBox="0 0 1024 1024" version="1.1" xmlns="http://www.w3.org/2000/svg" p-id="40804" width="200" height="200"><path d="M530.305642 495.996138c87.95945-75.57036 191.984552-108.134202 191.984553-223.961381 0-152.809076-111.996138-271.88028-256.061791-271.88028s-256 119.194786-256 271.88028a283.991311 283.991311 0 0 0 120.924933 240.984794C140.868037 574.099928 2.209094 802.263094 2.209094 1023.969105h576.077239c-165.661598-39.484432-268.080135-354.124065-47.980691-527.942071z" p-id="40805" fill="#e6e6e6"></path><path d="M1021.760144 744.673908a274.660874 274.660874 0 1 0-549.321748 0 274.660874 274.660874 0 0 0 274.660874 274.691769A274.660874 274.660874 0 0 0 1021.760144 744.673908z m-111.810765-100.410331l-259.923727 259.861936c-0.648805 0.679701-1.29761 1.359401-1.977311 1.977311a36.642047 36.642047 0 1 1-49.896211-53.696355l260.016414-259.954623a36.611151 36.611151 0 1 1 51.780835 51.780836z" p-id="40806" fill="#e6e6e6"></path></svg>