<svg t="1588771601441" class="icon" viewBox="0 0 1024 1024" version="1.1" xmlns="http://www.w3.org/2000/svg" p-id="27728" width="200" height="200"><path d="M511.998-0.004C229.228-0.004 0 229.228 0 511.998c0 282.772 229.228 512.006 511.998 512.006C794.772 1024.004 1024 794.77 1024 512 1024 229.23 794.774-0.004 511.998-0.004zM561.686 807.444c0 14.138-11.458 25.602-25.6 25.602l-76.8 0c-14.136 0-25.598-11.462-25.598-25.602l0-76.798c0-14.142 11.462-25.604 25.598-25.604l76.8 0c14.14 0 25.6 11.46 25.6 25.604L561.686 807.444zM688.588 455.06c-10.29 14.672-33.646 33.368-62.886 56.162l-32.404 22.362c-15.738 12.208-29.696 26.42-34.858 42.692-1.764 5.544-3.086 14.656-3.976 24.496-0.448 4.952-4.878 15.054-15.232 15.054-25.37 0-73.72 0-83.34 0-13.546 0-15.966-10.61-15.74-15.8 1.5-34.016 4.616-64.216 18.476-80.474 28.06-32.9 91.908-73.852 91.908-73.852 9.72-7.336 17.59-15.31 23.542-24 10.82-14.92 19.796-31.304 19.796-49.214 0-20.584-6.018-39.348-18.094-56.332-12.034-16.916-34.078-25.392-66.02-25.392-31.444 0-53.734 10.436-66.874 31.3-9.706 15.416-15.818 29.588-18.348 45.01-0.9 5.458-4.4 16.954-16.066 16.954-24.65 0-70.094 0-81.282 0-17.308 0-21.118-11.216-20.618-16.622 6.266-68.138 32.892-114.692 79.972-144.586 32.014-20.582 71.4-30.91 118.12-30.91 61.39 0 112.35 14.634 152.978 43.944 40.556 29.27 60.892 72.642 60.892 130.15C718.538 401.22 706.178 430.918 688.588 455.06z" p-id="27729" fill="#e6e6e6"></path></svg>