<svg t="1588770051439" class="icon" viewBox="0 0 1024 1024" version="1.1" xmlns="http://www.w3.org/2000/svg" p-id="6180" width="200" height="200"><path d="M834.5 85H180.6c-37.7 0-71.3 26.9-71.3 61.5v730.3c0 34.6 33.5 61.5 71.3 61.5h653.9c37.7 0 71.3-26.9 71.3-61.5V146.5c-0.1-34.6-33.6-61.5-71.3-61.5zM438.7 444v-23.3h70.6v-32.2h27.2v32.2h69.8V444h-69.8v38.4h82.6v24.4H427v-24.4h82.3V444h-70.6z m4.2 92.4h156.8V633H442.9v-96.6zM669.1 657c0 20.6-12 31-35.3 31h-50.1l-7.4-26.4c17.5 0.8 33.8 1.2 48.9 1.2 10.9 0 16.3-5.4 16.3-15.5V376.5h-235v128.4c-0.8 76-14 138.1-39.6 185.5l-21-19c21-43.1 31.8-97.8 32.6-164.1V350.5h290.6V657z" fill="#e6e6e6" p-id="6181"></path><path d="M470.1 560h102.8v48.5H470.1z" fill="#e6e6e6" p-id="6182"></path></svg>