<svg t="1588771409074" class="icon" viewBox="0 0 1024 1024" version="1.1" xmlns="http://www.w3.org/2000/svg" p-id="24488" width="200" height="200"><path d="M869.9328 680.8832c41.1264-49.4208 27.296-62.176 1.632-88.064-19.968-20.1344-36.2688-37.7408-86.784 2.208L869.9328 680.8832 869.9328 680.8832zM869.9328 680.8832M759.5264 617.152c-4.3392 4.1216-8.8448 8.5376-13.6128 13.3184-0.9024 0.9216-133.4208 134.5536-133.4208 134.5536-18.8032 17.792-50.048 117.7408-39.2576 128.6336 10.7904 10.8672 108.9088-18.4128 127.0912-39.1552 0 0 132.8256-133.9264 133.888-134.9888 4.736-4.7872 9.152-9.3312 13.2736-13.6576L759.5264 617.152 759.5264 617.152zM759.5264 617.152M142.2528 402.112c-0.2432 0-0.448 0.1152-0.6784 0.1344l1.3632 0C142.6944 402.2208 142.4896 402.112 142.2528 402.112zM137.2928 414.144l-0.096-0.128C137.2352 414.0608 137.2544 414.112 137.2928 414.144zM460.448 512c0.0384 0 0.0768-0.0064 0.1216-0.0064 0.0384 0 0.0832 0.0064 0.1216 0.0064 62.048 0 112.5504-51.6864 112.5504-115.2L573.2416 320c0-63.5136-50.5024-115.2-112.5504-115.2-0.0384 0-0.0832 0.0064-0.1216 0.0064-0.0448 0-0.0832-0.0064-0.1216-0.0064-62.048 0-112.5504 51.6864-112.5504 115.2l0 76.8C347.8976 460.3136 398.4 512 460.448 512zM467.7888 588.8c-2.4256 0-4.8128 0.1856-7.2192 0.2752C458.1632 588.9856 455.776 588.8 453.3504 588.8c-16.1856 0-32.1152 1.568-47.6352 4.4928-91.8336 17.3184-169.3888 83.8464-200.6592 176.3712-3.7632 11.0656-1.9584 23.0464 4.9152 32.9152 7.3344 10.592 18.7392 16.6272 31.2576 16.6272l163.0144 0 112.6592 0 0.7552 0c9.1904-24.2624 19.5008-45.2352 27.84-53.1328 0 0 56.0256-56.4992 102.784-103.648-36.4928-35.264-82.496-59.6288-132.8512-69.1264C499.8976 590.368 483.9744 588.8 467.7888 588.8zM599.232 191.1168C564.8704 152.4288 515.3792 128.0384 460.5696 128c0 0 0 0 0 0C515.3792 128.0384 564.8704 152.4352 599.232 191.1168zM516.9024 819.2 404.2432 819.2 241.2224 819.2c-12.5184 0-23.9168-6.0288-31.2576-16.6272-6.8736-9.8688-8.6784-21.8496-4.9152-32.9152 31.264-92.5248 108.8256-159.0528 200.6592-176.3712C421.2352 590.368 437.1648 588.8 453.3504 588.8c2.4256 0 4.8128 0.1856 7.2192 0.2752C462.976 588.9856 465.3632 588.8 467.7888 588.8c16.1856 0 32.1152 1.568 47.6352 4.4928 50.3552 9.4912 96.3584 33.8624 132.8512 69.1264 22.2912-22.4832 42.4128-42.7776 53.4016-53.856-32.2304-31.5776-70.2976-56.5312-112.1216-73.1008 35.9808-35.0592 58.7584-84.128 58.7584-138.6624L648.3136 320c0-105.6-84.448-192-187.6224-192-0.0384 0-0.0832 0-0.1216 0 54.8096 0.032 104.2944 24.4288 138.6624 63.1168C564.8704 152.4352 515.3792 128.0384 460.5696 128c0 0 0 0 0 0-0.0384 0-0.0832 0-0.1216 0-103.1744 0-187.6224 86.4-187.6224 192l0 76.8c0 54.5344 22.7712 103.6032 58.752 138.6624-90.8096 35.9808-164.3136 111.0912-197.4528 209.088-11.7888 34.8288-6.4128 72.2304 14.6688 102.5664C170.112 877.728 204.6336 896 241.2224 896l85.8304 0 168.8704 0c3.4752-21.5104 11.9616-50.9952 21.7344-76.8L516.9024 819.2zM625.3696 228.7104c-2.8992-5.44-6.0416-10.72-9.4208-15.8336C619.328 217.9904 622.4704 223.2704 625.3696 228.7104zM347.8976 320c0-63.5136 50.5024-115.2 112.5504-115.2 0.0384 0 0.0768 0.0064 0.1216 0.0064 0.0384 0 0.0832-0.0064 0.1216-0.0064 62.048 0 112.5504 51.6864 112.5504 115.2l0 76.8c0 63.5072-50.5024 115.2-112.5504 115.2-0.0384 0-0.0832-0.0064-0.1216-0.0064-0.0448 0-0.0832 0.0064-0.1216 0.0064-62.048 0-112.5504-51.6864-112.5504-115.2L347.8976 320z" p-id="24489" fill="#e6e6e6"></path></svg>