<svg t="1588771366324" class="icon" viewBox="0 0 1024 1024" version="1.1" xmlns="http://www.w3.org/2000/svg" p-id="24089" width="200" height="200"><path d="M292 672c-11 0-20 9-20 20s9 20 20 20h440c11 0 20-9 20-20s-9-20-20-20H292z m0-160c-11 0-20 9-20 20s9 20 20 20h440c11 0 20-9 20-20s-9-20-20-20H292z m0-160c-11 0-20 9-20 20s9 20 20 20h320c11 0 20-9 20-20s-9-20-20-20H292zM192 112h442.4c11.2 0 21.9 4.7 29.5 13l197.6 215.6c6.8 7.4 10.5 17 10.5 27V872c0 22.1-17.9 40-40 40H192c-22.1 0-40-17.9-40-40V152c0-22.1 17.9-40 40-40z" p-id="24090" fill="#e6e6e6"></path></svg>