<svg t="1588771324131" class="icon" viewBox="0 0 1024 1024" version="1.1" xmlns="http://www.w3.org/2000/svg" p-id="23134" width="200" height="200"><path d="M502.178909 38.632727c-131.072 0-237.521455 104.168727-237.521454 232.727273s106.402909 232.727273 237.521454 232.727273c131.165091 0 237.568-104.168727 237.568-232.727273s-106.309818-232.727273-237.568-232.727273z m0 0c-131.072 0-237.521455 104.168727-237.521454 232.727273s106.402909 232.727273 237.521454 232.727273c131.165091 0 237.568-104.168727 237.568-232.727273s-106.309818-232.727273-237.568-232.727273zM413.184 581.678545c-169.472 0-306.874182 134.609455-306.874182 300.590546v19.316364c0 67.909818 137.402182 67.956364 306.874182 67.956363h197.957818c169.425455 0 306.781091-2.513455 306.781091-67.956363v-19.316364c0-165.981091-137.355636-300.590545-306.781091-300.590546H413.184z m0 0" p-id="23135" fill="#e6e6e6"></path></svg>