<svg t="1588769563308" class="icon" viewBox="0 0 1024 1024" version="1.1" xmlns="http://www.w3.org/2000/svg" p-id="2268" width="200" height="200"><path d="M512 170.3c42.7 0 82.9 16.6 113.1 46.9 30.2 30.2 46.9 70.4 46.9 113.1s-16.6 82.9-46.9 113.1c-30.2 30.2-70.4 46.9-113.1 46.9s-82.9-16.6-113.1-46.9S352 373 352 330.3s16.6-82.9 46.9-113.1c30.2-30.3 70.4-46.9 113.1-46.9m0-40c-110.5 0-200 89.5-200 200s89.5 200 200 200 200-89.5 200-200-89.5-200-200-200zM112.7 893.7c5.3-25.4 13.1-50.2 23.3-74.3 20.5-48.6 50-92.2 87.5-129.7s81.1-66.9 129.7-87.5c50.3-21.3 103.7-32 158.8-32s108.5 10.8 158.8 32c48.6 20.5 92.2 50 129.7 87.5s66.9 81.1 87.5 129.7c10.2 24.1 18 48.9 23.3 74.3H952c-39.5-207-221.5-363.5-440-363.5S111.5 686.7 72 893.7h40.7z" fill="#e6e6e6" p-id="2269"></path></svg>